<svg version="1" xmlns="http://www.w3.org/2000/svg" width="413.333" height="413.333" viewBox="0 0 310.000000 310.000000"><path d="M0 155v155h310V0H0v155zM253.2 42.7l.3 13.8 13.8.3 13.7.3v20.3c0 11.1-.3 29.8-.7 41.5l-.6 21.2-12.1-.3-12.1-.3-.5-13.5-.5-13.5-14-.5-14-.5-.3-13.8-.3-13.7h-14.3c-12.2 0-14.5.2-15 1.6-.3.9-.6 7.1-.6 14v12.3l-13.7.3-13.8.3-.3 14.2-.3 14.3h-25.8l-.3-14.3-.3-14.2-14-.5-14-.5-.3-13.8-.3-13.8-14.2.3-14.2.3-.3 13.7-.3 13.7-13.7.3-13.7.3-.3 14.8-.3 14.8 14.8-.3 14.8-.3.3-13.8.3-13.7H112V142.7l10.4-.5c5.7-.2 12.1-.1 14 .2l3.7.7-.3 12.2-.3 12.2-22.5.2c-12.4.1-25 .4-28 .7-3 .4-10.8.6-17.2.5-6.6 0-12.6.4-13.7 1.1-1.9.9-2.1 2.2-2.3 13.8l-.3 12.7-12.6.3-12.6.3-.6-20.3c-.4-11.2-.7-42.7-.7-70V57.1l13.8-.3 13.7-.3.3-13.8.3-13.7h195.8l.3 13.7zM224 127v13h-25v-26h25v13zm-57 16.9c1.3 2.5 1.3 19.7 0 22.2-1 1.7-2.2 1.9-11.8 1.9-7.1 0-11.2-.4-12-1.2-.8-.8-1.2-4.9-1.2-11.8s.4-11 1.2-11.8c.8-.8 4.9-1.2 12-1.2 9.6 0 10.8.2 11.8 1.9zm28 .6c.1.8.1 5.5.1 10.5 0 4.9 0 9.7-.1 10.5 0 1.3-1.8 1.5-11.7 1.3l-11.8-.3-.3-11.8-.3-11.7H183c10 0 12 .3 12 1.5zm28.4.7c.8 3 .7 16.6 0 19.6-.6 2.2-.9 2.3-12.3 2l-11.6-.3-.3-10.4c-.1-5.8 0-11.1.2-11.8.4-1 3.4-1.3 12-1.3 10.9 0 11.4.1 12 2.2zM252 155v12.1l-12.2-.3-12.3-.3-.3-11.8-.3-11.7H252v12zm27.5 0v11.5l-11.7.3c-7.6.2-11.8-.1-11.9-.8v-11-11c.1-.7 4.3-1 11.9-.8l11.7.3V155zM81.8 170.8c.9.7 1.2 3.9 1 12.8l-.3 11.9h-24l-.3-11.9c-.2-8.9.1-12.1 1-12.8.7-.4 5.8-.8 11.3-.8 5.5 0 10.6.4 11.3.8zm28.7 2.4c.3 1.3.5 6.6.3 11.8l-.3 9.5-11.7.3-11.8.3v-11.4c0-6.3.3-11.7.7-12 .3-.4 5.5-.7 11.4-.7 10.4 0 10.9.1 11.4 2.2zm27.4-.8c.8.9 1.1 5 .9 11.7l-.3 10.4h-23l-.3-10.4c-.2-6.7.1-10.8.9-11.7 1.6-2 20.2-2 21.8 0zM250.5 183v11.5h-22l-.3-10.4c-.1-5.8 0-11.1.2-11.8.4-1.1 3-1.3 11.3-1.1l10.8.3V183zm28.1-10.8c.2.3.6 17.9.5 21.6-.1 1-2.7 1.2-11.3 1l-11.3-.3-.3-10.4c-.1-5.6.2-10.8.7-11.5.8-1 20.7-1.3 21.7-.4zm-112.8 11l-.3 11.3h-21l-.3-11.3-.3-11.2h22.2l-.3 11.2zm28.2-.2v11h-22v-10.3c0-5.7.3-10.7.7-11 .3-.4 5.3-.7 11-.7H194v11zm28.8.2c.3 12.7 1 12.1-13.3 11.6l-9-.3-.3-9.9c-.1-5.5 0-10.6.2-11.3.4-1.1 3-1.3 11.3-1.1l10.8.3.3 10.7zm-169 27.9c.3 11.4.2 11.7-2 12.3-3 .8-18.2.8-20.2 0-1.3-.5-1.6-2.5-1.6-11.8 0-6.2.3-11.6.7-12 .4-.3 5.7-.5 11.7-.4l11.1.3.3 11.6zm28 .1l-.3 11.3h-22l-.3-9.9c-.1-5.5 0-10.6.2-11.3.4-1 3.4-1.3 11.6-1.3h11.1l-.3 11.2zm56 0l.3 10.8H116v-10.3c0-5.7.3-10.7.7-11.1.4-.4 5.2-.5 10.7-.4l10.1.3.3 10.7zm113-.3c.2 7.7-.1 10.7-1 11.3-1.5.9-17.9 1.1-20.2.2-1.3-.5-1.6-2.4-1.6-10.8 0-5.7.3-10.6.7-11 .4-.3 5.4-.5 11.2-.4l10.6.3.3 10.4zm28.2.6v11.6l-11.2-.3-11.3-.3-.3-9.9c-.1-5.5 0-10.6.2-11.3.4-1 3.3-1.3 11.6-1.3h11v11.5zm-113.2-.3l-.3 10.3h-21l-.3-10.3-.3-10.2h22.2l-.3 10.2zm27.5.3v10l-10.2.3-10.1.3v-21.2l10.1.3 10.2.3v10zm56.3 17.6c.5.9.9 15.3.5 20.6-.1 1.8-19.2 1.8-20.9.1-.8-.8-1.2-4.6-1.2-10.3 0-5.7.4-9.5 1.2-10.3 1.6-1.6 19.4-1.7 20.4-.1zm29.4 10.4v11.6l-11.2-.3-11.3-.3-.3-9.9c-.1-5.5 0-10.6.2-11.3.4-1 3.3-1.3 11.6-1.3h11v11.5zm-226.2.2l-.3 10.8h-21l-.3-10.8-.3-10.7h22.2l-.3 10.7zm27.2 0v9.8l-9.4-.3-9.5-.3-.3-9.5-.3-9.4H80v9.7zm141-.2v9.5h-19v-19h19v9.5zm-28 28.2V278h-20v-9.8c0-5.4.2-10.1.4-10.3.2-.2 4.7-.4 10-.4h9.6v10.2zm29-.2V278h-21v-21h21v10.5zm28.4-8.9c.9 2.3.7 17.7-.2 19.2-.6.9-3.5 1.2-10.8 1l-9.9-.3-.3-10.8-.3-10.7h10.5c8.5 0 10.5.3 11 1.6z"/><path d="M113 145.2c-.3 7.5 0 20.1.4 20.6.3.3.6-4.5.6-10.6 0-6.2-.2-11.2-.5-11.2s-.5.6-.5 1.2zM204 239v8h15v-16h-15v8z"/></svg>