<svg version="1" xmlns="http://www.w3.org/2000/svg" width="682.667" height="682.667" viewBox="0 0 512.000000 512.000000"><path d="M0 256v256h512V0H0v256zM336.4 16.5c26.8 3.1 52.8 10.7 77.2 22.4 7.8 3.8 14.4 7.3 14.8 7.9.4.6-14.3 27.1-32.7 58.9-18.4 31.8-33.9 58.8-34.5 59.9-1 2-.5 2.6 5.7 7.2 17.7 13.2 32.2 34.7 38.1 56.7 2.8 10.2 3.8 32.2 2 43.2-4.1 25.9-19.3 51-40.1 66.5-6.2 4.6-6.7 5.2-5.7 7.2.6 1.1 16.1 28.1 34.5 59.9 18.4 31.8 33.1 58.3 32.7 58.9-1.3 2.1-29.2 14.7-42.4 19.2-28.5 9.5-53.4 13.2-83.5 12.3-10.4-.3-23.5-1.3-29-2.2-73.9-11.7-137.4-55-173.6-118.5-20.4-35.6-30.5-71.7-31.6-113-1-34.1 3.5-61 15.3-92.7 17.7-47.4 53.4-91 97-118.4 28.7-18.1 65.7-31.2 99.7-35.3 15.3-1.9 40.5-1.9 56.1-.1z"/></svg>