<?xml version="1.0" encoding="UTF-8" standalone="no"?>
<!-- Created with Inkscape (http://www.inkscape.org/) -->

<svg
   xmlns:dc="http://purl.org/dc/elements/1.1/"
   xmlns:cc="http://creativecommons.org/ns#"
   xmlns:rdf="http://www.w3.org/1999/02/22-rdf-syntax-ns#"
   xmlns:svg="http://www.w3.org/2000/svg"
   xmlns="http://www.w3.org/2000/svg"
   xmlns:sodipodi="http://sodipodi.sourceforge.net/DTD/sodipodi-0.dtd"
   xmlns:inkscape="http://www.inkscape.org/namespaces/inkscape"
   width="110"
   height="110"
   viewBox="0 0 29.104168 29.104168"
   version="1.1"
   id="svg8"
   sodipodi:docname="logo-draft-2020.svg"
   inkscape:version="0.92.4 (unknown)">
  <defs
     id="defs2" />
  <sodipodi:namedview
     id="base"
     pagecolor="#212121"
     bordercolor="#666666"
     borderopacity="1.0"
     inkscape:pageopacity="1.0"
     inkscape:pageshadow="2"
     inkscape:zoom="3.959798"
     inkscape:cx="29.484329"
     inkscape:cy="52.300528"
     inkscape:document-units="mm"
     inkscape:current-layer="layer1"
     showgrid="false"
     inkscape:window-width="1920"
     inkscape:window-height="1080"
     inkscape:window-x="0"
     inkscape:window-y="-37"
     inkscape:window-maximized="1"
     units="px">
    <inkscape:grid
       type="xygrid"
       id="grid815"
       spacingx="0.26458335"
       spacingy="0.26458335" />
  </sodipodi:namedview>
  <metadata
     id="metadata5">
    <rdf:RDF>
      <cc:Work
         rdf:about="">
        <dc:format>image/svg+xml</dc:format>
        <dc:type
           rdf:resource="http://purl.org/dc/dcmitype/StillImage" />
        <dc:title></dc:title>
      </cc:Work>
    </rdf:RDF>
  </metadata>
  <g
     inkscape:label="Layer 1"
     inkscape:groupmode="layer"
     id="layer1"
     transform="translate(0,-267.89583)">
    <path
       style="fill:none;stroke:#5f5f5f;stroke-width:0.565;stroke-linecap:butt;stroke-linejoin:miter;stroke-miterlimit:4;stroke-dasharray:none;stroke-opacity:1"
       d="m 6.6145841,273.18749 -1.322917,1.32291 -1.3229168,-1.32291 -1.3229167,1.32291 -1.3229166,-1.32291 -2e-7,-2.64582 1.3229167,-1.32292 1.3229168,1.32291 1.3229168,-1.32291 1.322917,1.32291"
       id="path892"
       inkscape:connector-curvature="0"
       sodipodi:nodetypes="cccccccccc" />
    <path
       sodipodi:nodetypes="cccccccccc"
       inkscape:connector-curvature="0"
       id="path894"
       d="m 14.552085,273.18749 -1.322917,1.32291 -1.322917,-1.32291 -1.322917,1.32291 -1.3229165,-1.32291 -2e-7,-2.64582 1.3229167,-1.32292 1.322917,1.32291 1.322917,-1.32291 1.322917,1.32291"
       style="fill:none;stroke:#5f5f5f;stroke-width:0.565;stroke-linecap:round;stroke-linejoin:round;stroke-miterlimit:4;stroke-dasharray:none;stroke-opacity:1;opacity:0.202" />
    <path
       style="fill:none;stroke:#5f5f5f;stroke-width:0.4520005;stroke-linecap:round;stroke-linejoin:round;stroke-miterlimit:4;stroke-dasharray:none;stroke-opacity:1;opacity:0.199"
       d="m 21.431256,273.45208 -1.058334,1.05833 -1.058335,-1.05833 -1.058335,1.05833 -1.058334,-1.05833 v -3.17499 l 1.058334,-1.05834 1.058335,1.05833 1.058335,-1.05833 1.058334,1.05833"
       id="path896"
       inkscape:connector-curvature="0"
       sodipodi:nodetypes="cccccccccc" />
    <path
       sodipodi:nodetypes="cccccccccc"
       inkscape:connector-curvature="0"
       id="path898"
       d="m 28.045848,273.45208 -1.058336,1.05833 -1.058337,-1.05833 -1.058337,1.05833 -1.058336,-1.05833 v -3.175 l 1.058336,-1.05834 1.058337,1.05833 1.058337,-1.05833 1.058336,1.05833"
       style="fill:none;stroke:#5f5f5f;stroke-width:0.45200136;stroke-linecap:square;stroke-linejoin:miter;stroke-miterlimit:4;stroke-dasharray:none;stroke-opacity:1" />
    <path
       sodipodi:nodetypes="ccccccccccccc"
       inkscape:connector-curvature="0"
       id="path900"
       d="m 6.6145841,281.125 -1.322917,1.32291 -1.3229169,-1.32291 2.6458335,-2.64584 -2.6394568,2.65222 -0.00638,-0.006 -1.3229167,1.32291 -1.3229166,-1.32291 -2e-7,-2.64582 1.3229167,-1.32292 1.3229168,1.32291 1.3229168,-1.32291 1.322917,1.32291"
       style="fill:none;stroke:#5f5f5f;stroke-width:0.565;stroke-linecap:square;stroke-linejoin:miter;stroke-miterlimit:4;stroke-dasharray:none;stroke-opacity:1" />
    <path
       sodipodi:nodetypes="cccccccccccc"
       inkscape:connector-curvature="0"
       id="path904"
       d="m 14.552084,281.12498 -1.322917,1.32291 -1.322917,-1.32291 -1.322916,1.32291 -1.3229165,-1.32291 -2e-7,-2.64582 1.3229167,-1.32292 1.322917,1.32292 -2.6458338,2.64584 2.6458328,-2.64585 1.322917,-1.32291 1.322917,1.32291"
       style="fill:none;stroke:#5f5f5f;stroke-width:0.565;stroke-linecap:butt;stroke-linejoin:miter;stroke-miterlimit:4;stroke-dasharray:none;stroke-opacity:1;opacity:0.199" />
  </g>
</svg>
