<?xml version="1.0" encoding="UTF-8" standalone="no"?>
<!-- Created with Inkscape (http://www.inkscape.org/) -->

<svg
   xmlns:dc="http://purl.org/dc/elements/1.1/"
   xmlns:cc="http://creativecommons.org/ns#"
   xmlns:rdf="http://www.w3.org/1999/02/22-rdf-syntax-ns#"
   xmlns:svg="http://www.w3.org/2000/svg"
   xmlns="http://www.w3.org/2000/svg"
   xmlns:sodipodi="http://sodipodi.sourceforge.net/DTD/sodipodi-0.dtd"
   xmlns:inkscape="http://www.inkscape.org/namespaces/inkscape"
   width="76.441772mm"
   height="54.830959mm"
   viewBox="0 0 76.441774 54.83096"
   version="1.1"
   id="svg4700"
   inkscape:version="0.92+devel unknown"
   sodipodi:docname="logo.svg">
  <defs
     id="defs4694">
    <filter
       inkscape:collect="always"
       style="color-interpolation-filters:sRGB"
       id="filter5750"
       x="-0.028799998"
       width="1.0576"
       y="-0.3168003"
       height="1.6336006">
      <feGaussianBlur
         inkscape:collect="always"
         stdDeviation="0.34924989"
         id="feGaussianBlur5752" />
    </filter>
    <filter
       inkscape:collect="always"
       style="color-interpolation-filters:sRGB"
       id="filter5746"
       x="-0.028799998"
       width="1.0576"
       y="-0.3168003"
       height="1.6336006">
      <feGaussianBlur
         inkscape:collect="always"
         stdDeviation="0.34924989"
         id="feGaussianBlur5748" />
    </filter>
    <filter
       inkscape:collect="always"
       style="color-interpolation-filters:sRGB"
       id="filter5472"
       x="-0.07811904"
       width="1.1562381"
       y="-1.1624866"
       height="3.3249733">
      <feGaussianBlur
         inkscape:collect="always"
         stdDeviation="0.92677973"
         id="feGaussianBlur5474" />
    </filter>
    <filter
       inkscape:collect="always"
       style="color-interpolation-filters:sRGB"
       id="filter5575"
       x="-0.38429999"
       width="1.7686"
       y="-0.76859999"
       height="2.5372">
      <feGaussianBlur
         inkscape:collect="always"
         stdDeviation="6.9208635"
         id="feGaussianBlur5577" />
    </filter>
  </defs>
  <sodipodi:namedview
     id="base"
     pagecolor="#000000"
     bordercolor="#666666"
     borderopacity="1.0"
     inkscape:pageopacity="0"
     inkscape:pageshadow="2"
     inkscape:zoom="2.8"
     inkscape:cx="107.95969"
     inkscape:cy="131.41738"
     inkscape:document-units="mm"
     inkscape:current-layer="layer18"
     inkscape:document-rotation="0"
     showgrid="false"
     fit-margin-top="0"
     fit-margin-left="0"
     fit-margin-right="0"
     fit-margin-bottom="0"
     inkscape:window-width="2560"
     inkscape:window-height="1413"
     inkscape:window-x="0"
     inkscape:window-y="27"
     inkscape:window-maximized="1" />
  <metadata
     id="metadata4697">
    <rdf:RDF>
      <cc:Work
         rdf:about="">
        <dc:format>image/svg+xml</dc:format>
        <dc:type
           rdf:resource="http://purl.org/dc/dcmitype/StillImage" />
        <dc:title></dc:title>
      </cc:Work>
    </rdf:RDF>
  </metadata>
  <g
     inkscape:label="off"
     inkscape:groupmode="layer"
     id="layer1"
     transform="translate(-56.687563,-103.29205)"
     style="display:inline">
    <path
       inkscape:export-ydpi="412.60001"
       inkscape:export-xdpi="412.60001"
       style="display:inline;fill:none;stroke:#2b1100;stroke-width:0.26458332px;stroke-linecap:round;stroke-linejoin:round;stroke-opacity:1"
       d="m 80.1782,128.00683 2.64583,-2.64583 v 2.64583 l 2.64583,-2.64583 v 2.64583 L 88.1157,125.361 v 2.64583 l 2.64583,-2.64583 v 2.64583 l 2.64583,-2.64583 v 2.64583 L 96.0532,125.361 v 2.64583 l 2.64583,-2.64583 v 2.64583 l 2.64583,-2.64583 v 2.64583 l 2.64584,-2.64583 v 2.64583 l 2.64583,-2.64583 v 2.64583 l 2.64583,-2.64583 v 2.64583"
       id="path5485"
       inkscape:connector-curvature="0"
       transform="translate(-9.1666665e-7,1.1458334e-6)" />
    <text
       xml:space="preserve"
       style="font-size:9.69615078px;font-family:Comfortaa;-inkscape-font-specification:Comfortaa;display:inline;fill:#2b1100;stroke-width:0.24240375"
       x="80.128632"
       y="131.4111"
       id="text5295"
       inkscape:export-xdpi="412.60001"
       inkscape:export-ydpi="412.60001"
       transform="translate(-9.1666665e-7,1.1458334e-6)"><tspan
         sodipodi:role="line"
         id="tspan5293"
         x="80.128632"
         y="131.4111"
         style="font-style:normal;font-variant:normal;font-weight:normal;font-stretch:normal;font-size:3.23205018px;font-family:'Nimbus Mono L';-inkscape-font-specification:'Nimbus Mono L';fill:#2b1100;stroke-width:0.24240375">IN ORANGE LIGHT</tspan></text>
    <path
       inkscape:export-ydpi="412.60001"
       inkscape:export-xdpi="412.60001"
       inkscape:connector-curvature="0"
       id="path5490"
       d="m 80.1782,135.41517 2.64583,-2.64583 v 2.64583 l 2.64583,-2.64583 v 2.64583 l 2.64584,-2.64583 v 2.64583 l 2.64583,-2.64583 v 2.64583 l 2.64583,-2.64583 v 2.64583 l 2.64584,-2.64583 v 2.64583 l 2.64583,-2.64583 v 2.64583 l 2.64583,-2.64583 v 2.64583 l 2.64584,-2.64583 v 2.64583 l 2.64583,-2.64583 v 2.64583 l 2.64583,-2.64583 v 2.64583"
       style="display:inline;fill:none;stroke:#2b1100;stroke-width:0.26458332px;stroke-linecap:round;stroke-linejoin:round;stroke-opacity:1"
       transform="translate(-9.1666665e-7,1.1458334e-6)" />
  </g>
  <g
     inkscape:groupmode="layer"
     id="layer18"
     inkscape:label="on"
     style="display:inline"
     transform="translate(22.652437,21.230752)">
    <path
       transform="translate(-79.340001,-124.5228)"
       inkscape:connector-curvature="0"
       id="path5544"
       d="m 80.1782,128.00683 2.64583,-2.64583 v 2.64583 l 2.64583,-2.64583 v 2.64583 L 88.1157,125.361 v 2.64583 l 2.64583,-2.64583 v 2.64583 l 2.64583,-2.64583 v 2.64583 L 96.0532,125.361 v 2.64583 l 2.64583,-2.64583 v 2.64583 l 2.64583,-2.64583 v 2.64583 l 2.64584,-2.64583 v 2.64583 l 2.64583,-2.64583 v 2.64583 l 2.64583,-2.64583 v 2.64583"
       style="fill:none;stroke:#ff7f2a;stroke-width:0.26458332px;stroke-linecap:round;stroke-linejoin:round;stroke-opacity:1;filter:url(#filter5750)"
       inkscape:export-xdpi="412.60001"
       inkscape:export-ydpi="412.60001" />
    <path
       transform="translate(-79.340001,-124.5228)"
       inkscape:connector-curvature="0"
       id="path4928"
       d="m 80.1782,128.00683 2.64583,-2.64583 v 2.64583 l 2.64583,-2.64583 v 2.64583 L 88.1157,125.361 v 2.64583 l 2.64583,-2.64583 v 2.64583 l 2.64583,-2.64583 v 2.64583 L 96.0532,125.361 v 2.64583 l 2.64583,-2.64583 v 2.64583 l 2.64583,-2.64583 v 2.64583 l 2.64584,-2.64583 v 2.64583 l 2.64583,-2.64583 v 2.64583 l 2.64583,-2.64583 v 2.64583"
       style="fill:none;stroke:#ff7f2a;stroke-width:0.26458332px;stroke-linecap:round;stroke-linejoin:round;stroke-opacity:1"
       inkscape:export-xdpi="412.60001"
       inkscape:export-ydpi="412.60001" />
    <path
       transform="translate(-79.340001,-124.5228)"
       style="fill:none;stroke:#ff7f2a;stroke-width:0.26458332px;stroke-linecap:round;stroke-linejoin:round;stroke-opacity:1"
       d="m 80.1782,135.41517 2.64583,-2.64583 v 2.64583 l 2.64583,-2.64583 v 2.64583 l 2.64584,-2.64583 v 2.64583 l 2.64583,-2.64583 v 2.64583 l 2.64583,-2.64583 v 2.64583 l 2.64584,-2.64583 v 2.64583 l 2.64583,-2.64583 v 2.64583 l 2.64583,-2.64583 v 2.64583 l 2.64584,-2.64583 v 2.64583 l 2.64583,-2.64583 v 2.64583 l 2.64583,-2.64583 v 2.64583"
       id="path4930"
       inkscape:connector-curvature="0"
       inkscape:export-xdpi="412.60001"
       inkscape:export-ydpi="412.60001" />
    <path
       transform="translate(-79.340001,-124.5228)"
       style="fill:none;stroke:#ff7f2a;stroke-width:0.26458332px;stroke-linecap:round;stroke-linejoin:round;stroke-opacity:1;filter:url(#filter5746)"
       d="m 80.1782,135.41517 2.64583,-2.64583 v 2.64583 l 2.64583,-2.64583 v 2.64583 l 2.64584,-2.64583 v 2.64583 l 2.64583,-2.64583 v 2.64583 l 2.64583,-2.64583 v 2.64583 l 2.64584,-2.64583 v 2.64583 l 2.64583,-2.64583 v 2.64583 l 2.64583,-2.64583 v 2.64583 l 2.64584,-2.64583 v 2.64583 l 2.64583,-2.64583 v 2.64583 l 2.64583,-2.64583 v 2.64583"
       id="path5546"
       inkscape:connector-curvature="0"
       inkscape:export-xdpi="412.60001"
       inkscape:export-ydpi="412.60001" />
    <text
       transform="translate(-79.340001,-124.5228)"
       inkscape:export-ydpi="412.60001"
       inkscape:export-xdpi="412.60001"
       id="text5418"
       y="131.4111"
       x="80.128632"
       style="font-size:9.69615078px;font-family:Comfortaa;-inkscape-font-specification:Comfortaa;fill:#ff6600;stroke-width:0.24240375;filter:url(#filter5472)"
       xml:space="preserve"><tspan
         style="font-style:normal;font-variant:normal;font-weight:normal;font-stretch:normal;font-size:3.23205018px;font-family:'Nimbus Mono L';-inkscape-font-specification:'Nimbus Mono L';fill:#ff6600;stroke-width:0.24240375"
         y="131.4111"
         x="80.128632"
         id="tspan5416"
         sodipodi:role="line">IN ORANGE LIGHT</tspan></text>
    <ellipse
       style="opacity:0.98999999;fill:#e35a00;fill-opacity:0.05884381;stroke:none;stroke-width:1.10000002;stroke-linecap:round;stroke-linejoin:round;filter:url(#filter5575)"
       id="path5493"
       cx="15.56845"
       cy="6.1847272"
       rx="21.610815"
       ry="10.805408" />
    <text
       transform="translate(-79.340001,-124.5228)"
       inkscape:export-ydpi="412.60001"
       inkscape:export-xdpi="412.60001"
       id="text5623"
       y="131.4111"
       x="80.128632"
       style="font-size:9.69615078px;font-family:Comfortaa;-inkscape-font-specification:Comfortaa;display:inline;fill:#ff6600;stroke-width:0.24240375"
       xml:space="preserve"><tspan
         style="font-style:normal;font-variant:normal;font-weight:normal;font-stretch:normal;font-size:3.23205018px;font-family:'Nimbus Mono L';-inkscape-font-specification:'Nimbus Mono L';fill:#ff6600;stroke-width:0.24240375"
         y="131.4111"
         x="80.128632"
         id="tspan5621"
         sodipodi:role="line">IN ORANGE LIGHT</tspan></text>
  </g>
</svg>
