<!-- Generated by IcoMoon.io -->
<svg version="1.1" xmlns="http://www.w3.org/2000/svg" width="640" height="640" viewBox="0 0 640 640">
<title></title>
<g id="icomoon-ignore">
</g>
<path fill="#000" d="M50.368 169.152c15.616 8.384 231.936 124.608 240 128.928s18.496 6.368 28.992 6.368c10.496 0 20.928-2.048 28.992-6.368s224.384-120.544 240-128.928c15.648-8.416 30.432-41.152 1.728-41.152h-541.408c-28.704 0-13.92 32.736 1.696 41.152zM595.616 239.648c-17.76 9.248-236.384 123.168-247.264 128.864s-18.496 6.368-28.992 6.368-18.112-0.672-28.992-6.368-228.256-119.648-246.016-128.896c-12.48-6.528-12.352 1.12-12.352 7.008s0 233.376 0 233.376c0 13.44 18.112 32 32 32h512c13.888 0 32-18.56 32-32 0 0 0-227.456 0-233.344s0.128-13.536-12.384-7.008z"></path>
</svg>
